<svg width="44" height="44" viewBox="0 0 44 44" fill="none" xmlns="http://www.w3.org/2000/svg">
<rect x="0.5" y="0.5" width="43" height="43" rx="13.5" stroke="#D7C9FF" stroke-opacity="0.32"/>
<path d="M22 14.5C21.586 14.5 21.25 14.164 21.25 13.75V13C21.25 12.586 21.586 12.25 22 12.25C22.414 12.25 22.75 12.586 22.75 13V13.75C22.75 14.164 22.414 14.5 22 14.5Z" fill="#7A5BD0"/>
<path d="M28.5453 21.0456C28.1313 21.0456 27.7953 20.7096 27.7953 20.2956C27.7953 17.2476 25.3203 14.6504 22.2783 14.5064C19.2325 14.3658 16.5171 16.7114 16.2303 19.7418C16.213 19.9229 16.2044 20.1089 16.2044 20.2956C16.2044 20.7096 15.8684 21.0456 15.4544 21.0456C15.0404 21.0456 14.7044 20.7096 14.7044 20.2956C14.7044 20.0616 14.7153 19.8276 14.737 19.6004C15.0981 15.7844 18.517 12.8279 22.3491 13.0083C26.1794 13.1894 29.2953 16.4586 29.2953 20.2956C29.2953 20.71 28.9593 21.0456 28.5453 21.0456Z" fill="#7A5BD0"/>
<path d="M29.9511 26.161C29.7663 26.161 29.5806 26.0927 29.4355 25.9559C28.393 24.9689 27.7949 23.5791 27.7949 22.1432C27.7949 21.7292 28.1309 21.3932 28.5449 21.3932C28.9589 21.3932 29.2949 21.7292 29.2949 22.1432C29.2949 23.1689 29.722 24.1619 30.4668 24.8665C30.7675 25.1511 30.7806 25.6259 30.496 25.927C30.3486 26.0822 30.1499 26.161 29.9511 26.161Z" fill="#7A5BD0"/>
<path d="M14.0481 26.161C13.849 26.161 13.6506 26.0826 13.5033 25.9266C13.2186 25.6259 13.2318 25.1511 13.5325 24.8665C14.2773 24.1619 14.7044 23.1692 14.7044 22.1432C14.7044 21.7292 15.0404 21.3932 15.4544 21.3932C15.8684 21.3932 16.2044 21.7292 16.2044 22.1432C16.2044 23.5799 15.6063 24.9696 14.5638 25.9559C14.4183 26.0927 14.233 26.161 14.0481 26.161Z" fill="#7A5BD0"/>
<path d="M22 31.75C19.9675 31.75 18.25 30.0325 18.25 28C18.25 27.586 18.586 27.25 19 27.25C19.414 27.25 19.75 27.586 19.75 28C19.75 29.2195 20.7805 30.25 22 30.25C23.2195 30.25 24.25 29.2195 24.25 28C24.25 27.586 24.586 27.25 25 27.25C25.414 27.25 25.75 27.586 25.75 28C25.75 30.0325 24.0325 31.75 22 31.75Z" fill="#7A5BD0"/>
<path d="M15.079 28.75C14.1651 28.75 13.3521 28.1913 13.0075 27.3265C12.6625 26.4606 12.8684 25.495 13.5321 24.8665C13.8329 24.5815 14.3072 24.5946 14.5926 24.8954C14.8772 25.1961 14.8645 25.6709 14.5637 25.9559C14.2352 26.2671 14.356 26.659 14.401 26.7715C14.4456 26.8833 14.6267 27.25 15.079 27.25C15.493 27.25 15.829 27.586 15.829 28C15.829 28.414 15.4934 28.75 15.079 28.75Z" fill="#7A5BD0"/>
<path d="M28.9202 28.75C28.5062 28.75 28.1702 28.414 28.1702 28C28.1702 27.586 28.5062 27.25 28.9202 27.25C29.3729 27.25 29.5544 26.8818 29.5994 26.7689C29.644 26.6568 29.7644 26.2664 29.4359 25.9555C29.1351 25.6705 29.122 25.1961 29.4066 24.895C29.6916 24.5943 30.166 24.5811 30.4671 24.8658C31.1309 25.4943 31.3371 26.4591 30.9929 27.3235C30.6479 28.1901 29.8341 28.75 28.9202 28.75Z" fill="#7A5BD0"/>
<path d="M15.454 22.8929C15.04 22.8929 14.704 22.5569 14.704 22.1429V20.2956C14.704 19.8816 15.04 19.5456 15.454 19.5456C15.868 19.5456 16.204 19.8816 16.204 20.2956V22.1429C16.204 22.5569 15.8684 22.8929 15.454 22.8929Z" fill="#7A5BD0"/>
<path d="M28.5452 22.8929C28.1312 22.8929 27.7952 22.5569 27.7952 22.1429V20.2956C27.7952 19.8816 28.1312 19.5456 28.5452 19.5456C28.9592 19.5456 29.2952 19.8816 29.2952 20.2956V22.1429C29.2952 22.5569 28.9592 22.8929 28.5452 22.8929Z" fill="#7A5BD0"/>
<path d="M28.9203 28.75H15.079C14.665 28.75 14.329 28.414 14.329 28C14.329 27.586 14.665 27.25 15.079 27.25H28.9199C29.3339 27.25 29.6699 27.586 29.6699 28C29.6699 28.414 29.3343 28.75 28.9203 28.75Z" fill="#7A5BD0"/>
<circle cx="28.5" cy="16.5" r="4" fill="#F0DD2C" stroke="white"/>
</svg>
