<svg width="21" height="20" viewBox="0 0 21 20" fill="none" xmlns="http://www.w3.org/2000/svg">
<path d="M20.7671 9.02385L10.9032 0.203269C10.8859 0.186024 10.8687 0.173091 10.8471 0.160157C10.6316 -0.0467773 10.2867 -0.0553995 10.0582 0.147224L0.194328 8.96781C-0.0470955 9.18336 -0.06434 9.54981 0.146905 9.79123C0.263306 9.92057 0.422818 9.98523 0.58233 9.98523C0.720286 9.98523 0.858242 9.93781 0.970332 9.83865L2.74652 8.24785V8.55825V13.1625V18.5342C2.74652 19.3404 3.40181 20 4.2123 20C4.22524 20 4.23386 20 4.24679 20C4.25973 20 4.26835 20 4.28128 20H7.32494C8.0837 20 8.70019 19.3835 8.70019 18.6247V13.3953C8.70019 13.2789 8.79504 13.1841 8.91144 13.1841H12.0543C12.1707 13.1841 12.2655 13.2789 12.2655 13.3953V18.6247C12.2655 19.3835 12.882 20 13.6407 20H16.7534C17.5725 20 18.2192 19.1938 18.2192 18.1635V13.3695V11.9037V8.30389L19.9954 9.8947C20.1075 9.99386 20.2454 10.0413 20.3834 10.0413C20.5429 10.0413 20.7024 9.97661 20.8188 9.84728C21.0257 9.60585 21.0042 9.23941 20.7671 9.02385ZM17.0509 11.8994V13.3652V18.1548C17.0509 18.573 16.8439 18.8274 16.7491 18.8274H13.6364C13.52 18.8274 13.4252 18.7325 13.4252 18.6161V13.3953C13.4252 12.6366 12.8087 12.0201 12.0499 12.0201H8.90713C8.14837 12.0201 7.53188 12.6366 7.53188 13.3953V18.6247C7.53188 18.7411 7.43703 18.836 7.32063 18.836H4.27697C4.26404 18.836 4.25541 18.836 4.24248 18.836C4.22955 18.836 4.22093 18.836 4.20799 18.836C4.04417 18.836 3.90621 18.7023 3.90621 18.5342V13.1582V8.55394V7.20455L10.4505 1.35865L17.0509 7.2606V11.8994Z" fill="#9B96AB"/>
</svg>
