<svg width="24" height="24" viewBox="0 0 24 24" fill="none" xmlns="http://www.w3.org/2000/svg">
<path d="M11.9131 12.9319C11.9379 12.9319 11.9628 12.9319 11.9926 12.9319C12.0026 12.9319 12.0125 12.9319 12.0224 12.9319C12.0373 12.9319 12.0572 12.9319 12.0721 12.9319C13.5283 12.907 14.7062 12.3951 15.576 11.416C17.4894 9.25906 17.1713 5.5614 17.1365 5.20853C17.0123 2.55954 15.7599 1.29219 14.7261 0.700766C13.9558 0.258439 13.0562 0.0198799 12.0523 0H12.0175C12.0125 0 12.0026 0 11.9976 0H11.9678C11.4161 0 10.3326 0.0894595 9.29392 0.680886C8.25022 1.27231 6.97791 2.53966 6.85366 5.20853C6.81887 5.5614 6.50079 9.25906 8.41423 11.416C9.27901 12.3951 10.4569 12.907 11.9131 12.9319ZM8.18064 5.33278C8.18064 5.31787 8.18561 5.30296 8.18561 5.29302C8.34962 1.72955 10.8793 1.34686 11.9628 1.34686H11.9827C11.9926 1.34686 12.0075 1.34686 12.0224 1.34686C13.3643 1.37668 15.6455 1.92338 15.7996 5.29302C15.7996 5.30793 15.7996 5.32284 15.8046 5.33278C15.8096 5.36757 16.1574 8.74715 14.577 10.5264C13.9508 11.2321 13.1158 11.58 12.0175 11.59C12.0075 11.59 12.0026 11.59 11.9926 11.59C11.9827 11.59 11.9777 11.59 11.9678 11.59C10.8744 11.58 10.0344 11.2321 9.4132 10.5264C7.83772 8.75709 8.17567 5.3626 8.18064 5.33278Z" fill="#9B96AB"/>
<path d="M22.2059 19.0648C22.2059 19.0599 22.2059 19.0549 22.2059 19.0499C22.2059 19.0102 22.2009 18.9704 22.2009 18.9257C22.1711 17.9416 22.1065 15.6405 19.9495 14.905C19.9346 14.9 19.9147 14.895 19.8998 14.89C17.6584 14.3185 15.7946 13.0263 15.7747 13.0114C15.4716 12.7977 15.0541 12.8722 14.8404 13.1754C14.6267 13.4786 14.7012 13.8961 15.0044 14.1098C15.0889 14.1694 17.0669 15.5461 19.542 16.1822C20.7 16.5948 20.8292 17.8323 20.864 18.9654C20.864 19.0102 20.864 19.0499 20.869 19.0897C20.8739 19.537 20.8441 20.2278 20.7646 20.6254C19.9594 21.0826 16.8035 22.6631 12.0025 22.6631C7.22141 22.6631 4.0456 21.0777 3.23549 20.6204C3.15597 20.2228 3.12118 19.532 3.13112 19.0847C3.13112 19.045 3.13609 19.0052 3.13609 18.9605C3.17088 17.8273 3.3001 16.5898 4.4581 16.1773C6.93315 15.5411 8.9112 14.1595 8.99569 14.1048C9.29886 13.8911 9.37341 13.4736 9.1597 13.1704C8.94599 12.8673 8.52851 12.7927 8.22534 13.0064C8.20546 13.0213 6.35166 14.3135 4.10027 14.8851C4.08039 14.89 4.06548 14.895 4.05057 14.9C1.8936 15.6405 1.82899 17.9416 1.79917 18.9207C1.79917 18.9654 1.79917 19.0052 1.7942 19.045C1.7942 19.0499 1.7942 19.0549 1.7942 19.0599C1.78923 19.3183 1.78426 20.6453 2.04767 21.3113C2.09737 21.4405 2.18683 21.5498 2.30611 21.6244C2.45521 21.7238 6.02862 24 12.0075 24C17.9864 24 21.5598 21.7188 21.7089 21.6244C21.8232 21.5498 21.9176 21.4405 21.9673 21.3113C22.2158 20.6503 22.2108 19.3233 22.2059 19.0648Z" fill="#9B96AB"/>
</svg>
