<svg width="20" height="20" viewBox="0 0 20 20" fill="none" xmlns="http://www.w3.org/2000/svg">
<g clip-path="url(#clip0_6_1194)">
<path d="M4.5805 3.96607C7.53325 1.2951 11.9522 1.25426 14.9458 3.69243L12.573 3.78228C12.2667 3.79454 12.0298 4.04775 12.042 4.35405C12.0543 4.65219 12.2993 4.88498 12.5934 4.88498C12.6015 4.88498 12.6056 4.88498 12.6138 4.88498L16.2568 4.7502C16.5549 4.73795 16.7877 4.49699 16.7877 4.19886V4.15802C16.7877 4.14985 16.7877 4.14576 16.7877 4.1376V4.13351L16.6529 0.531381C16.6407 0.225077 16.3834 -0.0117975 16.0811 0.000454632C15.7748 0.0127068 15.538 0.265918 15.5502 0.572221L15.636 2.8307C14.1535 1.61774 12.3279 0.915281 10.3757 0.817264C7.95799 0.694743 5.63418 1.5238 3.84128 3.14926C1.37453 5.38323 0.329012 8.78116 1.11315 12.0157C1.17441 12.2689 1.39903 12.4364 1.64816 12.4364C1.69308 12.4364 1.73392 12.4323 1.77885 12.42C2.0729 12.3465 2.25668 12.0484 2.18317 11.7543C1.49705 8.91185 2.41187 5.92641 4.5805 3.96607Z" fill="#7A5BD0"/>
<path d="M18.8869 7.98474C18.8134 7.69069 18.5152 7.50691 18.2212 7.58042C17.9271 7.65393 17.7434 7.95207 17.8169 8.24612C18.5071 11.0886 17.5882 14.074 15.4195 16.0344C13.8962 17.4107 11.9849 18.0887 10.0817 18.0887C8.2643 18.0887 6.45099 17.472 4.9889 16.2549L7.39032 16.0385C7.69254 16.0099 7.91716 15.7444 7.88857 15.4381C7.85998 15.1318 7.59452 14.9113 7.28822 14.9399L3.65751 15.2666C3.35529 15.2952 3.13066 15.5606 3.15925 15.8669L3.48598 19.4977C3.51048 19.7835 3.75144 20 4.03324 20C4.04957 20 4.06591 20 4.08225 19.9959C4.38446 19.9673 4.60909 19.7019 4.5805 19.3956L4.38446 17.1861C5.86697 18.3868 7.68437 19.0852 9.62429 19.1832C9.77948 19.1913 9.93468 19.1954 10.0858 19.1954C12.3361 19.1954 14.4761 18.3705 16.1588 16.8512C18.6255 14.6172 19.671 11.2234 18.8869 7.98474Z" fill="#7A5BD0"/>
</g>
<defs>
<clipPath id="clip0_6_1194">
<rect width="20" height="20" fill="white"/>
</clipPath>
</defs>
</svg>
