<svg width="24" height="20" viewBox="0 0 24 20" fill="none" xmlns="http://www.w3.org/2000/svg">
<path d="M19.8026 6.94573L19.8026 18.1028C19.8026 19.1497 18.9523 20 17.9054 20L1.89716 20C0.850266 20 -3.04804e-05 19.1497 -3.04346e-05 18.1028L-2.9947e-05 6.94573C-2.99012e-05 5.89883 0.850266 5.04853 1.89716 5.04853L17.9054 5.04853C18.9523 5.05345 19.8026 5.90375 19.8026 6.94573ZM1.90208 6.3805C1.58752 6.3805 1.33194 6.63608 1.33194 6.95064L1.33194 18.1077C1.33194 18.4223 1.58752 18.6779 1.90208 18.6779L17.9054 18.6779C18.2199 18.6779 18.4755 18.4223 18.4755 18.1077L18.4755 6.95064C18.4755 6.63608 18.2199 6.3805 17.9054 6.3805L1.90208 6.3805Z" fill="#7A5BD0"/>
<path d="M24 2.6795L24 13.8366C24 14.8835 23.1497 15.7338 22.1028 15.7338C21.7342 15.7338 21.4393 15.4389 21.4393 15.0702C21.4393 14.7016 21.7342 14.4067 22.1028 14.4067C22.4174 14.4067 22.6729 14.1511 22.6729 13.8366L22.6729 2.6795C22.6729 2.36493 22.4174 2.10935 22.1028 2.10935L6.09461 2.10935C5.78005 2.10935 5.52447 2.36493 5.52447 2.6795C5.52447 3.04812 5.22957 3.34302 4.86095 3.34302C4.49232 3.34302 4.19742 3.04812 4.19742 2.67949C4.19742 1.6326 5.04772 0.782299 6.09461 0.782299L22.1028 0.7823C23.1497 0.7823 24 1.6326 24 2.6795Z" fill="#7A5BD0"/>
</svg>
